<svg enable-background="new 0 0 30.511 30.511" version="1.1" viewBox="0 0 30.511 30.511" xml:space="preserve" xmlns="http://www.w3.org/2000/svg"><path d="m26.818 19.037l3.607-10.796c0.181-0.519 0.044-0.831-0.102-1.037-0.374-0.527-1.143-0.532-1.292-0.532l-20.385-4e-3 -0.544-2.581c-0.147-0.609-0.581-1.19-1.456-1.19h-5.729c-0.594 0-0.917 0.278-0.917 0.833v1.49c0 0.537 0.322 0.677 0.938 0.677h4.837l3.702 15.717c-0.588 0.623-0.908 1.531-0.908 2.378 0 1.864 1.484 3.582 3.38 3.582 1.79 0 3.132-1.677 3.35-2.677h7.21c0.218 1 1.305 2.717 3.349 2.717 1.863 0 3.378-1.614 3.378-3.475 0-1.851-1.125-3.492-3.359-3.492-0.929 0-2.031 0.5-2.543 1.25h-8.859c-0.643-1-1.521-1.31-2.409-1.345l-0.123-0.655h13.479c1.016 0 1.216-0.37 1.396-0.86zm-0.935 3.791c0.701 0 1.27 0.569 1.27 1.27s-0.569 1.27-1.27 1.27-1.271-0.568-1.271-1.27c1e-3 -0.701 0.57-1.27 1.271-1.27zm-12.678 1.27c0 0.709-0.576 1.286-1.283 1.286-0.709-2e-3 -1.286-0.577-1.286-1.286s0.577-1.286 1.286-1.286c0.707 0 1.283 0.577 1.283 1.286z" fill="#010002"/></svg>