<?xml version="1.0" encoding="iso-8859-1"?>
<!-- Generator: Adobe Illustrator 19.0.0, SVG Export Plug-In . SVG Version: 6.00 Build 0)  -->
<svg version="1.1" id="Capa_1" xmlns="http://www.w3.org/2000/svg" xmlns:xlink="http://www.w3.org/1999/xlink" x="0px" y="0px"
	 viewBox="0 0 428 428" style="enable-background:new 0 0 428 428;" xml:space="preserve">
<g>
	<g>
		<path d="M378,6H50C22.4,6,0,28.4,0,56v316c0,27.6,22.4,50,50,50h328c27.6,0,50-22.4,50-50V56C428,28.4,405.6,6,378,6z M20,56.2
			C20.1,39.6,33.5,26.1,50.1,26h327.7c16.6,0.1,30.1,13.6,30.1,30.2V106H20V56.2z M408,371.8c-0.1,16.6-13.5,30.1-30.1,30.2H50.1
			C33.5,401.9,20,388.4,20,371.8V126h388V371.8z"/>
	</g>
</g>
<g>
	<g>
		<path d="M109,63H68c-5.5,0-10,4.5-10,10s4.5,10,10,10h41c5.5,0,10-4.5,10-10S114.5,63,109,63z"/>
	</g>
</g>
<g>
	<g>
		<path d="M359,63h-41c-5.5,0-10,4.5-10,10s4.5,10,10,10h41c5.5,0,10-4.5,10-10S364.5,63,359,63z"/>
	</g>
</g>
<g>
	<g>
		<path d="M206,227h-74c-5.5,0-10,4.5-10,10s4.5,10,10,10h74c5.5,0,10-4.5,10-10S211.5,227,206,227z"/>
	</g>
</g>
<g>
	<g>
		<path d="M296,277H132c-5.5,0-10,4.5-10,10s4.5,10,10,10h164c5.5,0,10-4.5,10-10S301.5,277,296,277z"/>
	</g>
</g>
<g>
</g>
<g>
</g>
<g>
</g>
<g>
</g>
<g>
</g>
<g>
</g>
<g>
</g>
<g>
</g>
<g>
</g>
<g>
</g>
<g>
</g>
<g>
</g>
<g>
</g>
<g>
</g>
<g>
</g>
</svg>
